<svg version="1.1" viewBox="0.0 0.0 414.9160104986877 144.750656167979" fill="none" stroke="none" stroke-linecap="square" stroke-miterlimit="10" xmlns:xlink="http://www.w3.org/1999/xlink" xmlns="http://www.w3.org/2000/svg"><clipPath id="p.0"><path d="m0 0l414.91602 0l0 144.75066l-414.91602 0l0 -144.75066z" clip-rule="nonzero"/></clipPath><g clip-path="url(#p.0)"><path fill="#000000" fill-opacity="0.0" d="m0 0l414.91602 0l0 144.75066l-414.91602 0z" fill-rule="evenodd"/><path fill="#85200c" d="m-88.0 207.25984l146.04724 -201.00787l146.04724 201.00787z" fill-rule="evenodd"/><path fill="#85200c" d="m118.64829 72.80315l0 0c0 -40.208065 34.19558 -72.80315 76.37795 -72.80315l0 0c20.256699 0 39.68373 7.67031 54.00737 21.32355c14.323654 13.653238 22.37059 32.171005 22.37059 51.4796l0 0c0 40.20807 -34.195587 72.80315 -76.37796 72.80315l0 0c-42.182373 0 -76.37795 -32.595078 -76.37795 -72.80315z" fill-rule="evenodd"/><path fill="#85200c" d="m263.96063 0l128.62991 0l0 213.51181l-128.62991 0z" fill-rule="evenodd"/></g></svg>